<?xml version="1.0" encoding="UTF-8"?>
<!DOCTYPE svg PUBLIC "-//W3C//DTD SVG 1.1//EN" "http://www.w3.org/Graphics/SVG/1.1/DTD/svg11.dtd">
<svg xmlns="http://www.w3.org/2000/svg" version="1.1" width="925px" height="133px" style="shape-rendering:geometricPrecision; text-rendering:geometricPrecision; image-rendering:optimizeQuality; fill-rule:evenodd; clip-rule:evenodd" xmlns:xlink="http://www.w3.org/1999/xlink">
<g><path style="opacity:0.914" fill="#070602" d="M 86.5,1.5 C 91.8088,0.565458 95.3088,2.56546 97,7.5C 98.586,8.37596 100.086,9.37596 101.5,10.5C 104.21,17.3973 104.71,24.3973 103,31.5C 102.167,33.6667 100.667,35.1667 98.5,36C 89.6627,35.9791 80.8294,35.4791 72,34.5C 70.5643,34.5589 69.231,34.8922 68,35.5C 66.1829,60.4869 66.0163,85.4869 67.5,110.5C 67.3333,116.5 67.1667,122.5 67,128.5C 66.6258,129.416 66.1258,130.25 65.5,131C 59.1667,131.667 52.8333,131.667 46.5,131C 42.9109,128.473 38.9109,126.806 34.5,126C 33.8742,125.25 33.3742,124.416 33,123.5C 33.3238,104.341 33.8238,85.1743 34.5,66C 34.3757,56.1535 34.0424,46.3201 33.5,36.5C 26.5095,37.2559 19.5095,37.4226 12.5,37C 11.5,36 10.5,35 9.5,34C 6.76581,33.7896 4.26581,32.9563 2,31.5C 1.33333,24.8333 1.33333,18.1667 2,11.5C 2.23263,9.21986 3.06596,7.21986 4.5,5.5C 19.7848,5.34042 35.1181,5.17375 50.5,5C 62.7439,4.81212 74.7439,3.64545 86.5,1.5 Z"/></g>
<g><path style="opacity:0.914" fill="#080702" d="M 267.5,2.5 C 273.176,2.33391 278.843,2.50058 284.5,3C 287.777,5.73422 290.944,8.56756 294,11.5C 300.798,29.2268 306.798,47.2268 312,65.5C 319.795,46.7808 326.795,27.7808 333,8.5C 333.903,7.29857 335.069,6.46524 336.5,6C 341.806,4.97207 347.139,4.13873 352.5,3.5C 356.354,3.54714 360.021,4.38047 363.5,6C 365.733,9.78012 368.566,12.9468 372,15.5C 371.425,36.6704 370.591,57.8371 369.5,79C 370.123,82.4813 370.623,85.9813 371,89.5C 376.333,76.8333 381.667,64.1667 387,51.5C 388.253,48.2011 388.753,44.8678 388.5,41.5C 393.778,36.0145 400.111,34.0145 407.5,35.5C 408.806,36.9122 409.64,38.5789 410,40.5C 412.398,40.9582 414.064,42.2915 415,44.5C 420.03,63.5923 427.03,81.9256 436,99.5C 438.046,80.4736 437.88,61.4736 435.5,42.5C 437.198,36.9618 441.031,34.6285 447,35.5C 452.104,34.7992 455.604,36.7992 457.5,41.5C 459.193,42.2283 460.693,43.2283 462,44.5C 466.732,53.6293 471.732,62.6293 477,71.5C 477.254,61.6379 476.754,51.8045 475.5,42C 476.043,39.1191 477.709,37.1191 480.5,36C 485.167,35.3333 489.833,35.3333 494.5,36C 497.094,37.339 498.594,39.5056 499,42.5C 501.89,36.139 506.723,33.639 513.5,35C 515.991,38.4903 518.825,41.657 522,44.5C 523.934,48.7594 526.268,52.7594 529,56.5C 533.387,48.8846 537.887,41.3846 542.5,34C 547.611,32.8895 552.278,33.8895 556.5,37C 560.08,40.7377 563.413,44.571 566.5,48.5C 562.226,54.6162 557.726,60.6162 553,66.5C 550.333,71.8333 547.667,77.1667 545,82.5C 544.922,93.1691 544.922,103.836 545,114.5C 544.25,115.126 543.416,115.626 542.5,116C 538.167,116.667 533.833,116.667 529.5,116C 526.061,114.094 522.561,112.26 519,110.5C 519.735,99.829 519.402,89.1623 518,78.5C 514.087,70.3335 509.42,62.6668 504,55.5C 502.236,73.8382 502.069,92.1716 503.5,110.5C 502.96,111.748 502.293,112.915 501.5,114C 497.167,114.667 492.833,114.667 488.5,114C 485.649,111.711 482.315,110.377 478.5,110C 473.039,100.909 467.206,92.0761 461,83.5C 461.773,93.6899 461.606,103.857 460.5,114C 453.548,115.406 447.215,114.24 441.5,110.5C 438.268,111.118 435.268,112.285 432.5,114C 428.504,114.811 424.504,115.144 420.5,115C 417.973,112.292 414.806,110.792 411,110.5C 409.673,106.191 408.506,101.858 407.5,97.5C 403.215,98.2949 398.881,98.6282 394.5,98.5C 393.483,104.219 391.483,109.552 388.5,114.5C 386.568,115.52 384.568,115.687 382.5,115C 379.475,112.806 376.141,111.306 372.5,110.5C 371.67,116.138 371.17,121.804 371,127.5C 370.626,128.416 370.126,129.25 369.5,130C 363.5,130.667 357.5,130.667 351.5,130C 347.522,127.593 343.189,125.927 338.5,125C 337.874,124.25 337.374,123.416 337,122.5C 336.522,114.803 336.522,107.136 337,99.5C 334.355,108.433 331.522,117.267 328.5,126C 325.227,127.695 321.893,127.695 318.5,126C 311.142,123.237 303.975,120.07 297,116.5C 295.346,113.563 295.179,110.563 296.5,107.5C 295.155,102.454 293.655,97.4541 292,92.5C 291.667,103.833 291.333,115.167 291,126.5C 290.626,127.416 290.126,128.25 289.5,129C 283.5,129.667 277.5,129.667 271.5,129C 267.522,126.593 263.189,124.927 258.5,124C 257.874,123.25 257.374,122.416 257,121.5C 256.833,118.833 256.667,116.167 256.5,113.5C 259.16,80.3325 259.16,47.1658 256.5,14C 256.464,11.3701 256.964,8.87009 258,6.5C 261.005,4.48831 264.171,3.15497 267.5,2.5 Z"/></g>
<g><path style="opacity:0.928" fill="#060602" d="M 617.5,2.5 C 622.58,2.24969 627.58,2.74969 632.5,4C 635.105,7.69359 638.272,10.8603 642,13.5C 642.869,15.5806 643.369,17.7473 643.5,20C 641.855,37.1294 640.855,54.296 640.5,71.5C 647.143,70.7875 653.809,70.4542 660.5,70.5C 660.536,50.1343 660.036,29.801 659,9.5C 661.772,7.23894 664.938,5.73894 668.5,5C 673.5,4.33333 678.5,4.33333 683.5,5C 686.666,7.87393 689.833,10.7073 693,13.5C 691.535,36.6275 690.368,59.7942 689.5,83C 689.815,95.3527 690.482,107.686 691.5,120C 692.39,126.233 689.723,129.566 683.5,130C 678.5,130.667 673.5,130.667 668.5,130C 665.785,128.092 662.785,126.759 659.5,126C 657.406,124.745 656.406,122.912 656.5,120.5C 657.994,111.884 658.994,103.217 659.5,94.5C 653.479,95.0027 647.479,95.6693 641.5,96.5C 641.666,106.839 641.5,117.172 641,127.5C 640.5,128 640,128.5 639.5,129C 633.167,129.667 626.833,129.667 620.5,129C 617.564,126.744 614.23,125.411 610.5,125C 609,124.167 607.833,123 607,121.5C 607.789,102.525 608.289,83.5248 608.5,64.5C 608.553,47.3026 607.886,30.1359 606.5,13C 606.114,9.91086 607.114,7.41086 609.5,5.5C 612.194,4.2465 614.861,3.2465 617.5,2.5 Z"/></g>
<g><path style="opacity:1" fill="#d2c74e" d="M 87.5,3.5 C 92.5391,3.03152 95.3724,5.36486 96,10.5C 96.6667,15.1667 96.6667,19.8333 96,24.5C 95.6541,26.8477 94.4875,28.6811 92.5,30C 81.8332,30.2454 71.1665,30.0787 60.5,29.5C 59.3831,41.9706 58.7165,54.4706 58.5,67C 60.2436,85.4508 60.7436,103.951 60,122.5C 59.5348,123.931 58.7014,125.097 57.5,126C 51.8333,126.667 46.1667,126.667 40.5,126C 38.1523,125.654 36.3189,124.487 35,122.5C 35.4158,102.01 35.9158,81.5102 36.5,61C 36.4181,50.8158 36.0848,40.6492 35.5,30.5C 25.5341,31.591 15.5341,31.7576 5.5,31C 5,30.5 4.5,30 4,29.5C 3.33333,23.1667 3.33333,16.8333 4,10.5C 4.46524,9.06919 5.29857,7.90252 6.5,7C 14.6668,6.66617 22.8335,6.83283 31,7.5C 50.059,7.17563 68.8923,5.8423 87.5,3.5 Z"/></g>
<g><path style="opacity:1" fill="#d2c74f" d="M 339.5,87.5 C 340.657,79.3437 340.823,71.0104 340,62.5C 339.487,63.5266 338.987,64.5266 338.5,65.5C 332.694,83.3889 327.194,101.389 322,119.5C 320.649,121.01 318.982,122.01 317,122.5C 309.894,121.026 303.561,118.026 298,113.5C 298,110.167 298,106.833 298,103.5C 294.057,90.2867 289.557,77.2867 284.5,64.5C 284.013,63.5266 283.513,62.5266 283,61.5C 282.183,67.0164 282.349,72.3497 283.5,77.5C 284.014,85.9872 284.347,94.4872 284.5,103C 288.959,123.539 281.293,130.206 261.5,123C 260.667,122.167 259.833,121.333 259,120.5C 259.571,101.685 260.071,82.8518 260.5,64C 260.284,45.8 259.784,27.6333 259,9.5C 263.456,5.23804 268.789,3.57138 275,4.5C 277.833,4.66667 280.667,4.83333 283.5,5C 284.931,5.46524 286.097,6.29857 287,7.5C 294.131,26.2268 300.464,45.2268 306,64.5C 307.667,67.5 309.333,70.5 311,73.5C 319.796,52.4424 327.796,31.109 335,9.5C 342.141,6.23616 349.641,5.06949 357.5,6C 363.737,7.29738 366.404,11.1307 365.5,17.5C 363.836,33.7921 362.836,50.1254 362.5,66.5C 364.221,84.7899 364.721,103.123 364,121.5C 363.535,122.931 362.701,124.097 361.5,125C 356.167,125.667 350.833,125.667 345.5,125C 343.22,124.767 341.22,123.934 339.5,122.5C 338.865,110.879 338.865,99.2123 339.5,87.5 Z"/></g>
<g><path style="opacity:1" fill="#d2c74f" d="M 616.5,4.5 C 621.566,4.33992 626.566,4.83992 631.5,6C 632.667,7.16667 633.833,8.33333 635,9.5C 633.945,31.1348 633.445,52.8014 633.5,74.5C 643.088,72.9116 652.755,72.2449 662.5,72.5C 662.549,51.7986 662.049,31.132 661,10.5C 667.629,6.7194 674.796,5.55273 682.5,7C 683.931,7.46524 685.097,8.29857 686,9.5C 684.948,24.4648 683.948,39.4648 683,54.5C 682.598,76.8407 682.598,99.1741 683,121.5C 678.677,124.403 673.844,125.736 668.5,125.5C 664.82,125.941 661.653,124.941 659,122.5C 660.357,111.587 661.19,100.587 661.5,89.5C 652.472,89.3195 643.472,89.6529 634.5,90.5C 634.953,101.27 634.453,111.937 633,122.5C 632.5,123 632,123.5 631.5,124C 625.833,124.667 620.167,124.667 614.5,124C 612.152,123.654 610.319,122.487 609,120.5C 609.831,101.862 610.331,83.1955 610.5,64.5C 610.345,46.1279 609.845,27.7945 609,9.5C 611.17,7.17694 613.67,5.51027 616.5,4.5 Z"/></g>
<g><path style="opacity:0.89" fill="#080703" d="M 892.5,31.5 C 895.32,31.2475 897.986,31.7475 900.5,33C 904.333,37.5 908.167,42 912,46.5C 915.296,53.8102 917.129,61.4768 917.5,69.5C 914.164,69.467 910.997,70.1336 908,71.5C 906.233,70.1828 904.899,68.5161 904,66.5C 902.274,67.5762 900.441,67.7429 898.5,67C 897.113,64.955 895.946,62.7883 895,60.5C 894.744,63.557 894.244,66.557 893.5,69.5C 898.77,71.4683 903.77,73.9683 908.5,77C 927.694,93.7638 925.361,106.764 901.5,116C 888.348,117.774 876.682,114.274 866.5,105.5C 862.912,110.961 857.912,113.128 851.5,112C 849.3,109.954 846.633,108.954 843.5,109C 839.333,103.5 835.167,98 831,92.5C 830.798,99.5496 830.298,106.55 829.5,113.5C 824.533,114.662 819.533,114.829 814.5,114C 812.355,111.782 809.688,110.449 806.5,110C 806,109.5 805.5,109 805,108.5C 804.667,104.833 804.333,101.167 804,97.5C 803.247,102.929 801.413,107.929 798.5,112.5C 782.133,117.323 767.633,113.989 755,102.5C 752.229,96.4194 750.229,90.0861 749,83.5C 748.391,92.8238 746.391,101.824 743,110.5C 741.786,112.049 740.286,113.215 738.5,114C 723.084,116.636 709.584,112.803 698,102.5C 688.228,81.3908 689.561,61.0574 702,41.5C 712.415,33.944 723.248,33.7774 734.5,41C 737.354,44.8505 740.521,48.3505 744,51.5C 745.674,56.2131 747.34,60.8798 749,65.5C 750.284,57.9808 752.951,50.9808 757,44.5C 759.192,41.0709 762.026,38.4042 765.5,36.5C 787.412,33.5873 800.579,42.9206 805,64.5C 804.867,55.505 804.867,46.505 805,37.5C 806.171,36.1068 807.671,35.2735 809.5,35C 814.558,33.9896 819.391,34.4896 824,36.5C 825.009,38.0249 825.509,39.6916 825.5,41.5C 828.9,41.731 830.9,43.5643 831.5,47C 830.446,48.3876 830.28,49.8876 831,51.5C 834.172,47.1591 836.839,42.4924 839,37.5C 844.232,35.8427 849.065,36.6761 853.5,40C 855.356,43.3581 857.856,46.1914 861,48.5C 861.667,49.8333 861.667,51.1667 861,52.5C 853.971,60.7217 847.805,69.5551 842.5,79C 849.133,86.9665 856.3,94.1331 864,100.5C 865.608,95.8738 868.441,92.0405 872.5,89C 874.833,88.3333 877.167,88.3333 879.5,89C 882.392,91.5574 885.559,93.724 889,95.5C 891.457,92.9076 891.624,90.4076 889.5,88C 884.807,85.9514 880.141,83.9514 875.5,82C 869.502,78.1604 867.169,72.6604 868.5,65.5C 868.452,48.2506 876.452,36.9173 892.5,31.5 Z M 783.5,66.5 C 784.152,67.4486 784.486,68.6153 784.5,70C 783.88,74.8201 783.38,79.6534 783,84.5C 782.501,78.4839 782.668,72.4839 783.5,66.5 Z"/></g>
<g><path style="opacity:1" fill="#d0c64e" d="M 892.5,33.5 C 894.989,33.2978 897.323,33.7978 899.5,35C 907.437,43.1811 910.77,52.8477 909.5,64C 906.137,64.6257 902.804,64.9591 899.5,65C 898.634,60.4322 896.801,56.2655 894,52.5C 890.085,50.7109 887.752,52.0442 887,56.5C 886.333,60.5 886.333,64.5 887,68.5C 887.833,69.3333 888.667,70.1667 889.5,71C 897.764,72.8808 904.931,76.7142 911,82.5C 916.208,92.2274 914.041,100.061 904.5,106C 890.946,114.441 878.446,113.275 867,102.5C 867.253,96.5641 870.253,92.5641 876,90.5C 879.991,91.8142 883.491,93.9809 886.5,97C 887.833,97.6667 889.167,97.6667 890.5,97C 893.491,93.4397 893.824,89.7731 891.5,86C 886.58,83.8043 881.58,81.8043 876.5,80C 875,78.5 873.5,77 872,75.5C 866.871,55.4282 873.704,41.4282 892.5,33.5 Z"/></g>
<g><path style="opacity:0.889" fill="#080703" d="M 116.5,35.5 C 138.741,33.7515 152.074,43.7515 156.5,65.5C 158.255,58.0711 161.088,51.0711 165,44.5C 167.439,41.1663 170.273,38.333 173.5,36C 195.861,33.7102 209.028,43.5435 213,65.5C 215.094,80.89 213.427,95.89 208,110.5C 206.786,112.049 205.286,113.215 203.5,114C 197.167,114.667 190.833,114.667 184.5,114C 178.52,111.369 172.52,108.703 166.5,106C 161.032,99.5532 157.865,92.0532 157,83.5C 156.391,92.8238 154.391,101.824 151,110.5C 149.786,112.049 148.286,113.215 146.5,114C 140.167,114.667 133.833,114.667 127.5,114C 121.52,111.369 115.52,108.703 109.5,106C 104.322,99.8028 101.155,92.6362 100,84.5C 98.0011,71.498 100.001,59.1647 106,47.5C 108.734,42.6137 112.234,38.6137 116.5,35.5 Z"/></g>
<g><path style="opacity:1" fill="#cfc44d" d="M 543.5,35.5 C 550.175,35.5042 555.508,38.1708 559.5,43.5C 550.33,53.1679 543.163,64.1679 538,76.5C 537.837,87.5338 537.67,98.5338 537.5,109.5C 531.968,112.142 526.468,112.142 521,109.5C 520.667,98.8333 520.333,88.1667 520,77.5C 514.997,67.4872 508.997,58.1538 502,49.5C 499.771,44.7579 500.938,40.9246 505.5,38C 507.695,36.627 510.029,36.2937 512.5,37C 517.541,45.5833 522.708,54.0833 528,62.5C 533.698,53.7666 538.865,44.7666 543.5,35.5 Z"/></g>
<g><path style="opacity:1" fill="#d1c64e" d="M 809.5,36.5 C 813.182,36.3347 816.848,36.5014 820.5,37C 821.333,37.8333 822.167,38.6667 823,39.5C 822.547,48.4898 822.213,57.4898 822,66.5C 829.372,58.1309 835.539,48.9643 840.5,39C 845.343,37.786 849.51,38.9527 853,42.5C 853.667,44.1667 853.667,45.8333 853,47.5C 845.973,55.5304 840.14,64.3637 835.5,74C 841.654,82.8209 849.154,90.3209 858,96.5C 858.982,97.7589 859.315,99.0922 859,100.5C 855.37,105.487 850.537,107.654 844.5,107C 838.609,97.7211 831.442,89.5544 823,82.5C 822.667,91.1667 822.333,99.8333 822,108.5C 817.587,109.632 813.087,109.799 808.5,109C 808,108.5 807.5,108 807,107.5C 807.671,86.4992 807.504,65.4992 806.5,44.5C 806.833,42.5 807.167,40.5 807.5,38.5C 808.522,38.1445 809.189,37.4778 809.5,36.5 Z"/></g>
<g><path style="opacity:1" fill="#d1c64e" d="M 117.5,37.5 C 136.066,35.3302 146.566,43.3302 149,61.5C 150.442,75.1165 149.109,88.4499 145,101.5C 144.104,104.14 142.604,106.307 140.5,108C 132.089,108.905 123.755,108.572 115.5,107C 109.836,104.668 106.336,100.501 105,94.5C 99.5071,78.6983 100.507,63.365 108,48.5C 110.422,43.9303 113.589,40.2636 117.5,37.5 Z"/></g>
<g><path style="opacity:1" fill="#d1c64e" d="M 174.5,37.5 C 183.034,36.9547 191.034,38.788 198.5,43C 202.791,48.4188 205.291,54.5854 206,61.5C 207.737,76.248 206.07,90.5813 201,104.5C 200.167,106 199,107.167 197.5,108C 189.089,108.905 180.755,108.572 172.5,107C 166.836,104.668 163.336,100.501 162,94.5C 156.507,78.6983 157.507,63.365 165,48.5C 167.422,43.9303 170.589,40.2636 174.5,37.5 Z"/></g>
<g><path style="opacity:1" fill="#d1c64e" d="M 400.5,36.5 C 404.158,35.8724 406.658,37.2057 408,40.5C 413.683,62.1908 421.849,82.8575 432.5,102.5C 431.62,105.458 429.62,107.291 426.5,108C 421.915,109.225 417.248,109.725 412.5,109.5C 411.536,103.776 409.87,98.2762 407.5,93C 400.724,92.0804 394.057,92.4137 387.5,94C 386.09,99.2278 384.09,104.228 381.5,109C 374.969,110.929 370.636,108.762 368.5,102.5C 375.176,84.6385 382.343,66.9719 390,49.5C 390.651,47.765 390.485,46.0983 389.5,44.5C 392.346,40.5887 396.013,37.9221 400.5,36.5 Z"/></g>
<g><path style="opacity:1" fill="#d2c74e" d="M 477.5,78.5 C 477.56,79.0431 477.893,79.3764 478.5,79.5C 479.819,72.344 479.819,65.344 478.5,58.5C 478.527,52.44 478.361,46.44 478,40.5C 480.479,38.0832 483.479,37.0832 487,37.5C 490.575,37.0778 493.575,38.0778 496,40.5C 494.62,63.1725 494.12,85.8391 494.5,108.5C 489.445,109.829 484.445,109.662 479.5,108C 471.125,94.7483 462.625,81.5816 454,68.5C 454.095,81.4975 454.095,94.4975 454,107.5C 449.367,109.935 444.533,110.102 439.5,108C 438.685,96.4066 438.685,84.7399 439.5,73C 439.509,62.7804 438.843,52.6138 437.5,42.5C 437.931,40.2339 439.264,38.7339 441.5,38C 445.625,37.1462 449.625,37.4796 453.5,39C 460.632,52.7773 468.632,65.9439 477.5,78.5 Z"/></g>
<g><path style="opacity:1" fill="#d1c64e" d="M 709.5,37.5 C 718.883,36.9095 727.383,39.2428 735,44.5C 738.378,49.6799 740.378,55.3466 741,61.5C 742.79,76.2694 741.123,90.6027 736,104.5C 735.167,106 734,107.167 732.5,108C 724.089,108.905 715.755,108.572 707.5,107C 705,105.167 702.5,103.333 700,101.5C 691.486,83.7989 691.486,66.1322 700,48.5C 702.422,43.9303 705.589,40.2636 709.5,37.5 Z"/></g>
<g><path style="opacity:1" fill="#d1c64e" d="M 766.5,37.5 C 773.784,36.9652 780.784,38.1319 787.5,41C 793.053,44.6055 796.22,49.7721 797,56.5C 799.859,72.8618 798.525,88.8618 793,104.5C 792.167,106 791,107.167 789.5,108C 781.089,108.905 772.755,108.572 764.5,107C 762,105.167 759.5,103.333 757,101.5C 747.087,80.7418 748.587,60.9084 761.5,42C 764.309,41.6878 765.976,40.1878 766.5,37.5 Z M 783.5,66.5 C 782.668,72.4839 782.501,78.4839 783,84.5C 783.38,79.6534 783.88,74.8201 784.5,70C 784.486,68.6153 784.152,67.4486 783.5,66.5 Z"/></g>
<g><path style="opacity:0.945" fill="#0b0903" d="M 132.5,50.5 C 134.124,50.3601 135.29,51.0267 136,52.5C 136.667,62.8333 136.667,73.1667 136,83.5C 135.473,89.933 133.306,95.5997 129.5,100.5C 127.854,99.2214 126.687,97.5547 126,95.5C 124.885,83.0463 125.551,70.7129 128,58.5C 129.259,55.6441 130.759,52.9774 132.5,50.5 Z"/></g>
<g><path style="opacity:0.945" fill="#0c0b04" d="M 189.5,50.5 C 190.822,50.33 191.989,50.6634 193,51.5C 193.827,64.5342 193.493,77.5342 192,90.5C 190.926,94.3189 189.093,97.6522 186.5,100.5C 184.854,99.2214 183.687,97.5547 183,95.5C 181.917,83.053 182.584,70.7196 185,58.5C 186.259,55.6441 187.759,52.9774 189.5,50.5 Z"/></g>
<g><path style="opacity:0.946" fill="#0d0b04" d="M 724.5,50.5 C 725.822,50.33 726.989,50.6634 728,51.5C 728.827,64.5342 728.493,77.5342 727,90.5C 725.926,94.3189 724.093,97.6522 721.5,100.5C 719.854,99.2214 718.687,97.5547 718,95.5C 716.917,83.053 717.584,70.7196 720,58.5C 721.259,55.6441 722.759,52.9774 724.5,50.5 Z"/></g>
<g><path style="opacity:0.952" fill="#0c0b04" d="M 781.5,50.5 C 782.822,50.33 783.989,50.6634 785,51.5C 785.667,62.5 785.667,73.5 785,84.5C 784.284,90.495 782.117,95.8283 778.5,100.5C 776.854,99.2214 775.687,97.5547 775,95.5C 774.291,84.4708 774.624,73.4708 776,62.5C 777.037,58.0948 778.871,54.0948 781.5,50.5 Z M 783.5,66.5 C 782.668,72.4839 782.501,78.4839 783,84.5C 783.38,79.6534 783.88,74.8201 784.5,70C 784.486,68.6153 784.152,67.4486 783.5,66.5 Z"/></g>
<g><path style="opacity:1" fill="#6c6628" d="M 478.5,58.5 C 479.819,65.344 479.819,72.344 478.5,79.5C 477.893,79.3764 477.56,79.0431 477.5,78.5C 478.491,72.021 478.824,65.3543 478.5,58.5 Z"/></g>
<g><path style="opacity:1" fill="#3c3816" d="M 284.5,64.5 C 283.515,68.6344 283.182,72.9677 283.5,77.5C 282.349,72.3497 282.183,67.0164 283,61.5C 283.513,62.5266 284.013,63.5266 284.5,64.5 Z"/></g>
<g><path style="opacity:0.98" fill="#0a0803" d="M 403.5,81.5 C 401.844,83.0603 399.844,84.0603 397.5,84.5C 395.076,84.8076 392.743,84.4742 390.5,83.5C 392.331,77.8335 394.831,72.5002 398,67.5C 400.125,72.0382 401.958,76.7048 403.5,81.5 Z"/></g>
<g><path style="opacity:1" fill="#5c5722" d="M 339.5,87.5 C 339.825,79.9809 339.492,72.6476 338.5,65.5C 338.987,64.5266 339.487,63.5266 340,62.5C 340.823,71.0104 340.657,79.3437 339.5,87.5 Z"/></g>
<g><path style="opacity:1" fill="#555120" d="M 403.5,81.5 C 404.404,82.209 404.737,83.209 404.5,84.5C 402.167,84.5 399.833,84.5 397.5,84.5C 399.844,84.0603 401.844,83.0603 403.5,81.5 Z"/></g>
</svg>
