<?xml version="1.0" encoding="UTF-8"?>
<!DOCTYPE svg PUBLIC "-//W3C//DTD SVG 1.1//EN" "http://www.w3.org/Graphics/SVG/1.1/DTD/svg11.dtd">
<svg xmlns="http://www.w3.org/2000/svg" version="1.1" width="925px" height="133px" style="shape-rendering:geometricPrecision; text-rendering:geometricPrecision; image-rendering:optimizeQuality; fill-rule:evenodd; clip-rule:evenodd" xmlns:xlink="http://www.w3.org/1999/xlink">
<g><path style="opacity:0.89" fill="#f7f7f7" d="M 86.5,-0.5 C 88.8333,-0.5 91.1667,-0.5 93.5,-0.5C 96.4286,2.99215 99.5953,6.32548 103,9.5C 105.804,17.4113 106.137,25.4113 104,33.5C 102.833,34.6667 101.667,35.8333 100.5,37C 90.1652,37.2845 79.8318,37.1178 69.5,36.5C 68.8177,49.6612 68.151,62.8279 67.5,76C 69.2385,93.4661 69.7385,110.966 69,128.5C 68.3378,129.984 67.5045,131.317 66.5,132.5C 58.8333,132.5 51.1667,132.5 43.5,132.5C 40.9825,130.265 37.9825,128.765 34.5,128C 33.3333,126.833 32.1667,125.667 31,124.5C 31.2888,105.006 31.7888,85.5062 32.5,66C 32.4067,56.8157 32.0734,47.649 31.5,38.5C 24.825,38.6663 18.1583,38.4996 11.5,38C 9.19176,36.1335 6.5251,35.1335 3.5,35C 2.29493,33.6244 0.961599,32.4577 -0.5,31.5C -0.5,24.8333 -0.5,18.1667 -0.5,11.5C -0.360564,7.50222 1.63944,4.66888 5.5,3C 20.4905,3.36498 35.4905,3.36498 50.5,3C 62.7439,2.81212 74.7439,1.64545 86.5,-0.5 Z"/></g>
<g><path style="opacity:0.854" fill="#f4f4f4" d="M 369.5,132.5 C 364.5,132.5 359.5,132.5 354.5,132.5C 348.956,131.576 343.623,129.742 338.5,127C 335.046,124.031 333.546,120.198 334,115.5C 332.864,119.243 331.53,122.91 330,126.5C 328.53,128.152 326.697,129.152 324.5,129.5C 315.241,126.691 306.241,123.191 297.5,119C 295.513,117.681 294.346,115.848 294,113.5C 293.667,117.5 293.333,121.5 293,125.5C 292.654,127.848 291.487,129.681 289.5,131C 282.125,131.686 274.792,131.353 267.5,130C 263.295,128.49 259.462,126.324 256,123.5C 254.921,120.288 254.421,116.955 254.5,113.5C 257.153,80.1665 257.153,46.8331 254.5,13.5C 254.531,6.62694 258.031,2.62694 265,1.5C 271.473,0.433052 277.973,0.266386 284.5,1C 286.848,1.34588 288.681,2.51255 290,4.5C 293.053,7.8866 295.72,11.5533 298,15.5C 302.667,30.1667 307.333,44.8333 312,59.5C 319.321,42.5381 325.654,25.2047 331,7.5C 332.579,5.95884 334.413,4.79217 336.5,4C 344.782,1.46965 353.115,1.13632 361.5,3C 363.587,3.79217 365.421,4.95884 367,6.5C 369.72,9.55467 372.053,12.888 374,16.5C 372.63,38.4669 371.963,60.4669 372,82.5C 376.667,71.1667 381.333,59.8333 386,48.5C 386.496,46.9651 386.33,45.4651 385.5,44C 390.53,34.6551 398.197,31.3218 408.5,34C 410.288,37.0163 412.621,39.5163 415.5,41.5C 420.263,58.692 426.43,75.3586 434,91.5C 435.858,75.1686 435.691,58.8353 433.5,42.5C 434.832,35.366 439.165,32.366 446.5,33.5C 449.592,33.5069 452.592,34.0069 455.5,35C 457.657,38.1557 460.157,40.989 463,43.5C 466.747,50.6628 470.747,57.6628 475,64.5C 474.944,56.9999 474.444,49.4999 473.5,42C 473.795,39.0766 475.129,36.7432 477.5,35C 483.08,33.4826 488.747,33.1492 494.5,34C 496.305,34.972 497.972,36.1387 499.5,37.5C 503.509,32.8799 508.509,31.3799 514.5,33C 520.258,38.6683 524.924,45.1683 528.5,52.5C 532.944,45.7875 537.278,38.9541 541.5,32C 547.813,30.6625 553.48,31.9958 558.5,36C 562.055,40.0483 565.389,44.2149 568.5,48.5C 568.281,49.938 567.781,51.2713 567,52.5C 557.95,60.8887 551.283,70.8887 547,82.5C 546.274,92.1837 546.441,101.85 547.5,111.5C 547.954,114.224 546.954,116.057 544.5,117C 539.924,118.476 535.257,118.81 530.5,118C 526.35,116.171 522.184,114.337 518,112.5C 516.37,107.267 516.204,101.933 517.5,96.5C 516.924,90.5066 516.424,84.5066 516,78.5C 512.835,72.1663 509.169,66.1663 505,60.5C 504.35,66.8216 503.85,73.155 503.5,79.5C 504.461,90.8243 504.628,102.158 504,113.5C 503.5,114.667 502.667,115.5 501.5,116C 496.146,116.332 490.813,115.999 485.5,115C 484.833,114.333 484.167,113.667 483.5,113C 481.048,112.71 478.715,112.044 476.5,111C 472.471,104.448 468.304,97.9483 464,91.5C 463.667,98.8333 463.333,106.167 463,113.5C 462.167,114.333 461.333,115.167 460.5,116C 453.541,116.772 447.041,115.605 441,112.5C 433.888,116.052 426.388,117.219 418.5,116C 415.748,114.086 412.748,112.586 409.5,111.5C 408.059,107.677 406.726,103.843 405.5,100C 402.151,99.6124 398.817,99.7791 395.5,100.5C 394.97,106.26 392.97,111.427 389.5,116C 383.483,117.221 377.983,116.055 373,112.5C 372.303,116.535 372.47,120.535 373.5,124.5C 373.108,127.701 371.774,130.367 369.5,132.5 Z"/></g>
<g><path style="opacity:0.845" fill="#f2f2f2" d="M 905.5,72.5 C 910.764,75.929 915.264,80.2624 919,85.5C 925.616,94.9816 924.449,103.482 915.5,111C 898.481,121.892 882.315,120.725 867,107.5C 862.609,112.617 857.109,114.783 850.5,114C 849.833,113.333 849.167,112.667 848.5,112C 846.048,111.71 843.715,111.044 841.5,110C 838.717,105.549 835.55,101.383 832,97.5C 831.667,103.167 831.333,108.833 831,114.5C 830.5,115 830,115.5 829.5,116C 825.167,116.667 820.833,116.667 816.5,116C 813.085,114.083 809.419,112.75 805.5,112C 804.667,111.167 803.833,110.333 803,109.5C 801.491,111.71 799.658,113.543 797.5,115C 781.206,118.448 766.706,114.948 754,104.5C 752.589,101.421 751.089,98.421 749.5,95.5C 748.249,102.089 745.915,108.256 742.5,114C 725.947,118.42 710.947,115.42 697.5,105C 694.988,101.142 693.155,96.9753 692,92.5C 692.272,104.158 692.272,115.825 692,127.5C 691.692,128.308 691.192,128.975 690.5,129.5C 687.718,130.516 685.051,131.516 682.5,132.5C 678.167,132.5 673.833,132.5 669.5,132.5C 665.848,130.213 661.848,128.379 657.5,127C 656.299,126.097 655.465,124.931 655,123.5C 655.581,114.508 656.415,105.508 657.5,96.5C 652.819,96.6686 648.152,97.0019 643.5,97.5C 643.666,107.172 643.5,116.839 643,126.5C 642.293,128.081 641.46,129.581 640.5,131C 630.033,132.469 620.033,131.136 610.5,127C 605.591,124.516 603.591,120.516 604.5,115C 607.155,80.9989 607.155,46.9989 604.5,13C 604.436,7.39114 607.103,3.72447 612.5,2C 619.978,-0.25843 627.311,0.0749029 634.5,3C 637.06,5.97055 639.727,8.80388 642.5,11.5C 644.042,15.14 644.709,18.9733 644.5,23C 643.126,38.4711 642.46,53.9711 642.5,69.5C 647.797,68.7255 653.13,68.3921 658.5,68.5C 658.489,48.4696 657.989,28.4696 657,8.5C 664.937,2.89015 673.77,1.05682 683.5,3C 684.833,3.66667 686.167,4.33333 687.5,5C 689.285,8.45238 691.785,11.2857 695,13.5C 694.26,27.1616 693.593,40.8283 693,54.5C 695.664,45.6265 700.831,38.7931 708.5,34C 728.104,31.2979 741.437,39.1312 748.5,57.5C 750.883,51.066 754.05,45.066 758,39.5C 760.862,38.2044 763.362,36.3711 765.5,34C 781.384,31.6153 793.55,37.1153 802,50.5C 800.183,35.6347 806.683,29.8014 821.5,33C 825.333,36.8333 829.167,40.6667 833,44.5C 834.973,41.3829 836.807,38.2163 838.5,35C 847.189,33.0997 853.689,35.933 858,43.5C 862.488,45.979 863.655,49.6456 861.5,54.5C 854.891,61.954 849.225,70.1207 844.5,79C 850.391,85.2268 856.557,91.0602 863,96.5C 869.494,84.7513 877.661,83.418 887.5,92.5C 888.5,92.1667 889.167,91.5 889.5,90.5C 884.318,87.7431 878.985,85.2431 873.5,83C 870.567,80.7357 868.4,77.9024 867,74.5C 862.914,50.6375 872.414,35.6375 895.5,29.5C 905.911,34.4202 913.078,42.4202 917,53.5C 918.112,58.8283 918.779,64.1616 919,69.5C 918.5,70 918,70.5 917.5,71C 913.509,71.6417 909.509,72.1417 905.5,72.5 Z M 905.5,72.5 C 903.407,71.9553 901.407,71.122 899.5,70C 902.294,69.0276 904.294,69.8609 905.5,72.5 Z"/></g>
<g><path style="opacity:1" fill="#1d1d17" d="M 94.5,3.5 C 93.8333,3.5 93.1667,3.5 92.5,3.5C 63.9267,6.99535 35.26,8.16201 6.5,7C 5.29857,7.90252 4.46524,9.06919 4,10.5C 3.33333,16.8333 3.33333,23.1667 4,29.5C 4.5,30 5,30.5 5.5,31C 8.81677,31.4983 12.1501,31.665 15.5,31.5C 12.5,32.1667 9.5,32.8333 6.5,33.5C 4.62901,33.1412 3.12901,32.1412 2,30.5C 1.2387,23.4693 1.40537,16.4693 2.5,9.5C 2.8757,7.61714 3.8757,6.11714 5.5,5C 33.5959,6.2886 61.5959,5.12194 89.5,1.5C 91.5566,1.4357 93.2233,2.10237 94.5,3.5 Z"/></g>
<g><path style="opacity:1" fill="#d2c74f" d="M 92.5,3.5 C 96.3039,9.94163 97.4705,16.9416 96,24.5C 95.6541,26.8477 94.4875,28.6811 92.5,30C 81.8332,30.2454 71.1665,30.0787 60.5,29.5C 59.3831,41.9706 58.7165,54.4706 58.5,67C 60.2436,85.4508 60.7436,103.951 60,122.5C 59.5348,123.931 58.7014,125.097 57.5,126C 51.8333,126.667 46.1667,126.667 40.5,126C 38.1523,125.654 36.3189,124.487 35,122.5C 35.4158,102.01 35.9158,81.5102 36.5,61C 36.4181,50.8158 36.0848,40.6492 35.5,30.5C 28.8772,31.3796 22.2105,31.713 15.5,31.5C 12.1501,31.665 8.81677,31.4983 5.5,31C 5,30.5 4.5,30 4,29.5C 3.33333,23.1667 3.33333,16.8333 4,10.5C 4.46524,9.06919 5.29857,7.90252 6.5,7C 35.26,8.16201 63.9267,6.99535 92.5,3.5 Z"/></g>
<g><path style="opacity:1" fill="#d2c74f" d="M 315.5,62.5 C 322.669,45.1668 329.169,27.5001 335,9.5C 343.973,5.0775 353.14,4.5775 362.5,8C 363.636,9.14508 364.636,10.3117 365.5,11.5C 364.07,29.8041 363.07,48.1375 362.5,66.5C 364.221,84.7899 364.721,103.123 364,121.5C 363.535,122.931 362.701,124.097 361.5,125C 354.766,125.829 348.099,125.496 341.5,124C 340.667,123.167 339.833,122.333 339,121.5C 338.907,110.172 339.073,98.8382 339.5,87.5C 340.657,79.3437 340.823,71.0104 340,62.5C 339.487,63.5266 338.987,64.5266 338.5,65.5C 332.694,83.3889 327.194,101.389 322,119.5C 320.649,121.01 318.982,122.01 317,122.5C 309.894,121.026 303.561,118.026 298,113.5C 298,110.167 298,106.833 298,103.5C 294.057,90.2867 289.557,77.2867 284.5,64.5C 284.013,63.5266 283.513,62.5266 283,61.5C 282.183,67.0164 282.349,72.3497 283.5,77.5C 284.014,85.9872 284.347,94.4872 284.5,103C 288.959,123.539 281.293,130.206 261.5,123C 260.667,122.167 259.833,121.333 259,120.5C 259.166,99.8352 259.666,79.1686 260.5,58.5C 260.109,42.138 259.609,25.8047 259,9.5C 260.214,7.95118 261.714,6.78451 263.5,6C 270.099,4.50433 276.766,4.171 283.5,5C 284.931,5.46524 286.097,6.29857 287,7.5C 294.402,27.7058 301.402,48.0391 308,68.5C 309.252,70.0009 310.252,71.6675 311,73.5C 312.791,69.9639 314.291,66.2973 315.5,62.5 Z"/></g>
<g><path style="opacity:1" fill="#d2c74f" d="M 644.5,72.5 C 650.5,72.5 656.5,72.5 662.5,72.5C 662.549,51.7986 662.049,31.132 661,10.5C 669.426,5.66889 677.926,5.33556 686.5,9.5C 682.696,46.7462 681.53,84.0795 683,121.5C 678.677,124.403 673.844,125.736 668.5,125.5C 664.82,125.941 661.653,124.941 659,122.5C 660.357,111.587 661.19,100.587 661.5,89.5C 652.472,89.3195 643.472,89.6529 634.5,90.5C 634.666,100.506 634.5,110.506 634,120.5C 633.535,121.931 632.701,123.097 631.5,124C 624.751,124.877 618.084,124.544 611.5,123C 608.972,120.427 607.972,117.261 608.5,113.5C 610.928,78.8214 611.095,44.1547 609,9.5C 612.389,5.97947 616.556,4.3128 621.5,4.5C 626.865,4.12472 631.365,5.79139 635,9.5C 633.945,31.1348 633.445,52.8014 633.5,74.5C 637.337,74.0691 641.003,73.4025 644.5,72.5 Z"/></g>
<g><path style="opacity:1" fill="#100f0c" d="M 92.5,3.5 C 93.1667,3.5 93.8333,3.5 94.5,3.5C 95.4426,6.9435 97.6093,9.27684 101,10.5C 103.936,17.6827 104.27,25.016 102,32.5C 101.167,33.3333 100.333,34.1667 99.5,35C 88.8332,35.2454 78.1665,35.0787 67.5,34.5C 66.4207,46.8049 65.754,59.1382 65.5,71.5C 67.2338,90.1178 67.7338,108.785 67,127.5C 66.5348,128.931 65.7014,130.097 64.5,131C 58.8333,131.667 53.1667,131.667 47.5,131C 43.9409,128.434 39.9409,126.768 35.5,126C 34.7894,124.745 33.956,123.579 33,122.5C 33.3763,103.51 33.8763,84.5096 34.5,65.5C 34.3937,55.8182 34.0603,46.1515 33.5,36.5C 26.4921,36.6663 19.4921,36.4996 12.5,36C 11.0217,33.9614 9.02173,33.1281 6.5,33.5C 9.5,32.8333 12.5,32.1667 15.5,31.5C 22.2105,31.713 28.8772,31.3796 35.5,30.5C 36.0848,40.6492 36.4181,50.8158 36.5,61C 35.9158,81.5102 35.4158,102.01 35,122.5C 36.3189,124.487 38.1523,125.654 40.5,126C 46.1667,126.667 51.8333,126.667 57.5,126C 58.7014,125.097 59.5348,123.931 60,122.5C 60.7436,103.951 60.2436,85.4508 58.5,67C 58.7165,54.4706 59.3831,41.9706 60.5,29.5C 71.1665,30.0787 81.8332,30.2454 92.5,30C 94.4875,28.6811 95.6541,26.8477 96,24.5C 97.4705,16.9416 96.3039,9.94163 92.5,3.5 Z"/></g>
<g><path style="opacity:1" fill="#191814" d="M 687.5,8.5 C 686.833,8.5 686.5,8.83333 686.5,9.5C 677.926,5.33556 669.426,5.66889 661,10.5C 662.049,31.132 662.549,51.7986 662.5,72.5C 656.5,72.5 650.5,72.5 644.5,72.5C 643.833,72.5 643.5,72.1667 643.5,71.5C 649.121,70.6463 654.788,70.313 660.5,70.5C 660.536,50.134 660.036,29.8006 659,9.5C 666.457,4.59598 674.624,3.26265 683.5,5.5C 685.16,6.17159 686.493,7.17159 687.5,8.5 Z"/></g>
<g><path style="opacity:1" fill="#201f1b" d="M 366.5,10.5 C 365.833,10.5 365.5,10.8333 365.5,11.5C 364.636,10.3117 363.636,9.14508 362.5,8C 353.14,4.5775 343.973,5.0775 335,9.5C 329.169,27.5001 322.669,45.1668 315.5,62.5C 315.672,61.5084 315.338,60.8417 314.5,60.5C 320.827,44.0182 326.661,27.3516 332,10.5C 332.465,9.06919 333.299,7.90252 334.5,7C 343.368,3.43857 352.368,2.93857 361.5,5.5C 363.946,6.52443 365.612,8.1911 366.5,10.5 Z"/></g>
<g><path style="opacity:0.824" fill="#efefef" d="M 116.5,33.5 C 131.282,31.8081 143.115,36.8081 152,48.5C 153.504,51.5089 155.004,54.5089 156.5,57.5C 159.657,47.6224 165.323,39.7891 173.5,34C 191.553,31.2738 204.386,38.1072 212,54.5C 217.659,74.6736 216.326,94.3403 208,113.5C 191.966,118.136 177.132,115.636 163.5,106C 161.117,102.735 159.117,99.2351 157.5,95.5C 156.226,101.821 154.06,107.821 151,113.5C 135.553,117.84 121.053,115.674 107.5,107C 102.399,100.379 99.2328,92.8789 98,84.5C 95.575,67.9458 99.2416,52.9458 109,39.5C 112.193,38.2863 114.693,36.2863 116.5,33.5 Z"/></g>
<g><path style="opacity:1" fill="#1d1b15" d="M 202.5,45.5 C 201.833,45.5 201.5,45.8333 201.5,46.5C 197.275,41.9 191.942,39.0667 185.5,38C 176.451,37.0252 169.617,40.5252 165,48.5C 162.315,53.7441 160.148,59.0775 158.5,64.5C 158.5,63.8333 158.167,63.5 157.5,63.5C 159.402,51.4981 165.402,42.3314 175.5,36C 178.833,35.3333 182.167,35.3333 185.5,36C 188.774,37.2023 192.107,38.2023 195.5,39C 198.33,40.728 200.663,42.8947 202.5,45.5 Z"/></g>
<g><path style="opacity:1" fill="#cfc44d" d="M 559.5,42.5 C 555.241,48.6045 550.741,54.6045 546,60.5C 542.806,65.5545 540.139,70.8878 538,76.5C 537.837,87.5338 537.67,98.5338 537.5,109.5C 531.968,112.142 526.468,112.142 521,109.5C 520.667,98.8333 520.333,88.1667 520,77.5C 514.997,67.4872 508.997,58.1538 502,49.5C 500.187,46.9218 500.02,44.2551 501.5,41.5C 503.34,39.832 505.34,38.332 507.5,37C 509.167,36.3333 510.833,36.3333 512.5,37C 517.541,45.5833 522.708,54.0833 528,62.5C 533.559,53.8807 538.725,45.0474 543.5,36C 549.817,35.6559 555.151,37.8226 559.5,42.5 Z"/></g>
<g><path style="opacity:1" fill="#201f18" d="M 795.5,46.5 C 794.662,46.8417 794.328,47.5084 794.5,48.5C 793.079,45.2424 790.746,42.7424 787.5,41C 784.107,40.2023 780.774,39.2023 777.5,38C 774.167,37.3333 770.833,37.3333 767.5,38C 765.863,40.3102 763.696,41.8102 761,42.5C 758.139,47.5625 755.306,52.5625 752.5,57.5C 752.167,57.5 751.833,57.5 751.5,57.5C 753.1,51.6331 755.767,46.2998 759.5,41.5C 762.205,40.1057 764.538,38.2723 766.5,36C 773.021,35.0708 779.354,35.7374 785.5,38C 788.167,39.6667 790.833,41.3333 793.5,43C 794.305,44.1127 794.972,45.2794 795.5,46.5 Z"/></g>
<g><path style="opacity:1" fill="#d1c64e" d="M 144.5,46.5 C 151.582,66.7009 150.916,86.7009 142.5,106.5C 141.975,107.192 141.308,107.692 140.5,108C 133.167,108.667 125.833,108.667 118.5,108C 113.112,106.486 109.112,103.319 106.5,98.5C 98.2785,78.7655 100.112,60.0988 112,42.5C 114.429,41.9707 116.262,40.6374 117.5,38.5C 126.017,36.9428 134.017,38.4428 141.5,43C 142.163,44.5185 143.163,45.6851 144.5,46.5 Z"/></g>
<g><path style="opacity:1" fill="#d1c64e" d="M 201.5,46.5 C 208.192,65.8111 208.025,85.1444 201,104.5C 198.454,108.05 194.954,109.383 190.5,108.5C 181.637,109.894 173.637,108.06 166.5,103C 164.437,100.489 162.937,97.656 162,94.5C 160.891,90.3531 159.724,86.3531 158.5,82.5C 158.5,76.5 158.5,70.5 158.5,64.5C 160.148,59.0775 162.315,53.7441 165,48.5C 169.617,40.5252 176.451,37.0252 185.5,38C 191.942,39.0667 197.275,41.9 201.5,46.5 Z"/></g>
<g><path style="opacity:1" fill="#d1c64e" d="M 373.5,109.5 C 372.685,108.163 371.518,107.163 370,106.5C 368.373,101.503 369.206,96.8367 372.5,92.5C 378.229,78.1505 384.063,63.8171 390,49.5C 389.047,43.7284 391.547,39.895 397.5,38C 402.01,35.2972 405.51,36.1305 408,40.5C 413.683,62.1908 421.849,82.8575 432.5,102.5C 431.62,105.458 429.62,107.291 426.5,108C 421.915,109.225 417.248,109.725 412.5,109.5C 411.512,104.035 410.012,98.7019 408,93.5C 401.138,92.0568 394.305,92.2235 387.5,94C 386.05,98.9554 384.217,103.789 382,108.5C 379.281,109.444 376.448,109.777 373.5,109.5 Z"/></g>
<g><path style="opacity:1" fill="#d2c74f" d="M 477.5,78.5 C 477.56,79.0431 477.893,79.3764 478.5,79.5C 479.819,72.344 479.819,65.344 478.5,58.5C 478.527,52.44 478.361,46.44 478,40.5C 480.479,38.0832 483.479,37.0832 487,37.5C 490.671,37.1094 493.838,38.1094 496.5,40.5C 495.905,51.3334 495.238,62.1667 494.5,73C 495.448,84.4915 495.615,95.9915 495,107.5C 493.13,108.743 490.964,109.41 488.5,109.5C 485.467,109.331 482.467,108.998 479.5,108.5C 471.26,95.0255 462.76,81.6922 454,68.5C 454.095,81.4975 454.095,94.4975 454,107.5C 449.092,110.051 444.092,110.051 439,107.5C 438.71,96.0012 438.877,84.5012 439.5,73C 439.509,62.7804 438.843,52.6138 437.5,42.5C 439.084,38.5364 442.084,36.8697 446.5,37.5C 449.253,37.3533 451.753,38.0199 454,39.5C 460.867,53.1735 468.7,66.1735 477.5,78.5 Z"/></g>
<g><path style="opacity:1" fill="#d1c64e" d="M 730.5,41.5 C 732.229,42.1175 733.729,43.1175 735,44.5C 737.225,48.2807 738.891,52.2807 740,56.5C 742.93,72.881 741.596,88.881 736,104.5C 733.454,108.05 729.954,109.383 725.5,108.5C 708.998,111.181 698.831,104.515 695,88.5C 691.125,71.7378 694.125,56.4045 704,42.5C 706.429,41.9707 708.262,40.6374 709.5,38.5C 716.887,36.8078 723.887,37.8078 730.5,41.5 Z"/></g>
<g><path style="opacity:1" fill="#d1c64e" d="M 794.5,48.5 C 800.566,68.2369 799.566,87.5702 791.5,106.5C 788.807,108.27 785.807,108.937 782.5,108.5C 768.907,111.501 759.407,106.834 754,94.5C 752.64,89.4038 751.474,84.4038 750.5,79.5C 750.221,72.063 750.888,64.7297 752.5,57.5C 755.306,52.5625 758.139,47.5625 761,42.5C 763.696,41.8102 765.863,40.3102 767.5,38C 770.833,37.3333 774.167,37.3333 777.5,38C 780.774,39.2023 784.107,40.2023 787.5,41C 790.746,42.7424 793.079,45.2424 794.5,48.5 Z"/></g>
<g><path style="opacity:1" fill="#100f0c" d="M 907.5,78.5 C 913.506,82.0126 918.006,87.0126 921,93.5C 921.598,97.0527 920.931,100.386 919,103.5C 906.236,117.698 891.402,120.198 874.5,111C 872.005,109.173 869.505,107.34 867,105.5C 863.936,108.287 860.436,110.453 856.5,112C 854.833,112.667 853.167,112.667 851.5,112C 849.27,109.937 846.603,108.604 843.5,108C 839.359,102.224 834.859,96.7244 830,91.5C 829.667,98.8333 829.333,106.167 829,113.5C 824.587,114.632 820.087,114.799 815.5,114C 812.061,112.094 808.561,110.26 805,108.5C 804.78,101.822 804.78,95.1552 805,88.5C 804.6,97.1971 802.1,105.197 797.5,112.5C 790.217,113.632 782.883,113.799 775.5,113C 773.359,112.427 771.359,111.594 769.5,110.5C 773.833,109.833 778.167,109.167 782.5,108.5C 785.807,108.937 788.807,108.27 791.5,106.5C 799.566,87.5702 800.566,68.2369 794.5,48.5C 794.328,47.5084 794.662,46.8417 795.5,46.5C 801.316,52.144 804.483,59.144 805,67.5C 805.166,58.1606 805.166,48.8273 805,39.5C 805.98,38.0186 807.147,36.6853 808.5,35.5C 813.718,33.8885 818.718,34.3885 823.5,37C 824.893,38.1711 825.727,39.6711 826,41.5C 829.747,43.647 831.581,46.9804 831.5,51.5C 834.411,46.7676 837.077,41.9343 839.5,37C 842.167,36.3333 844.833,36.3333 847.5,37C 849.5,38.3333 851.5,39.6667 853.5,41C 855,43.8333 857.167,46 860,47.5C 860.667,49.1667 860.667,50.8333 860,52.5C 853.054,60.7807 846.888,69.6141 841.5,79C 847.036,84.3686 852.37,89.8686 857.5,95.5C 858.5,95.5 859.5,95.5 860.5,95.5C 860.373,98.245 861.54,100.245 864,101.5C 865.589,96.5616 868.423,92.395 872.5,89C 874.167,88.3333 875.833,88.3333 877.5,89C 881.01,91.1824 884.51,93.349 888,95.5C 890.755,93.5194 891.588,91.0194 890.5,88C 885.284,85.4804 879.95,83.147 874.5,81C 872.3,78.7664 870.467,76.2664 869,73.5C 865.607,53.1034 873.44,39.2701 892.5,32C 894.579,31.1923 896.579,31.359 898.5,32.5C 909.923,40.9386 916.257,52.2719 917.5,66.5C 917.392,67.4419 917.059,68.2753 916.5,69C 913.628,69.3148 910.795,69.8148 908,70.5C 906.235,69.7679 905.068,68.4346 904.5,66.5C 902.484,67.7059 900.484,67.7059 898.5,66.5C 897.132,64.363 896.132,62.0297 895.5,59.5C 894.808,60.0253 894.308,60.6919 894,61.5C 893.502,64.4816 893.335,67.4816 893.5,70.5C 899.057,71.6117 903.724,74.2784 907.5,78.5 Z"/></g>
<g><path style="opacity:1" fill="#d1c64e" d="M 857.5,95.5 C 858.815,101.738 856.148,105.571 849.5,107C 847.833,107.667 846.167,107.667 844.5,107C 838.609,97.7211 831.442,89.5544 823,82.5C 822.667,91.1667 822.333,99.8333 822,108.5C 817.587,109.632 813.087,109.799 808.5,109C 808,108.5 807.5,108 807,107.5C 807.436,84.4765 807.603,61.4765 807.5,38.5C 811.568,36.4765 815.902,35.9765 820.5,37C 821.333,37.8333 822.167,38.6667 823,39.5C 822.547,48.4898 822.213,57.4898 822,66.5C 829.789,58.4213 835.956,49.2547 840.5,39C 845.343,37.786 849.51,38.9527 853,42.5C 853.667,44.1667 853.667,45.8333 853,47.5C 845.973,55.5304 840.14,64.3637 835.5,74C 841.385,82.7193 848.718,89.8859 857.5,95.5 Z"/></g>
<g><path style="opacity:1" fill="#d0c64e" d="M 907.5,78.5 C 917.293,88.731 916.293,97.8977 904.5,106C 890.946,114.441 878.446,113.275 867,102.5C 867.15,97.7143 869.317,93.8809 873.5,91C 875.167,90.3333 876.833,90.3333 878.5,91C 881.453,93.793 884.787,95.9597 888.5,97.5C 889.442,97.3918 890.275,97.0585 891,96.5C 893.645,92.9891 893.811,89.4891 891.5,86C 886.58,83.8043 881.58,81.8043 876.5,80C 874.291,78.1266 872.458,75.96 871,73.5C 867.279,52.9181 875.279,39.5848 895,33.5C 901.345,36.5267 905.678,41.5267 908,48.5C 909.07,53.4998 909.737,58.4998 910,63.5C 906.563,64.5624 903.063,65.0624 899.5,65C 898.634,60.4322 896.801,56.2655 894,52.5C 890.085,50.7109 887.752,52.0442 887,56.5C 886.333,60.5 886.333,64.5 887,68.5C 887.833,69.3333 888.667,70.1667 889.5,71C 895.896,72.7023 901.896,75.2023 907.5,78.5 Z"/></g>
<g><path style="opacity:1" fill="#13130f" d="M 497.5,39.5 C 496.833,39.5 496.5,39.8333 496.5,40.5C 493.838,38.1094 490.671,37.1094 487,37.5C 483.479,37.0832 480.479,38.0832 478,40.5C 478.361,46.44 478.527,52.44 478.5,58.5C 478.824,65.3543 478.491,72.021 477.5,78.5C 468.7,66.1735 460.867,53.1735 454,39.5C 451.753,38.0199 449.253,37.3533 446.5,37.5C 442.084,36.8697 439.084,38.5364 437.5,42.5C 438.843,52.6138 439.509,62.7804 439.5,73C 438.877,84.5012 438.71,96.0012 439,107.5C 444.092,110.051 449.092,110.051 454,107.5C 454.095,94.4975 454.095,81.4975 454,68.5C 462.76,81.6922 471.26,95.0255 479.5,108.5C 478.833,108.5 478.5,108.833 478.5,109.5C 473.132,100.288 467.298,91.2882 461,82.5C 461.38,92.4849 461.38,102.485 461,112.5C 460.5,113 460,113.5 459.5,114C 452.903,115.251 446.903,114.085 441.5,110.5C 437.437,111.353 433.437,112.52 429.5,114C 426.183,114.498 422.85,114.665 419.5,114.5C 419.5,113.5 419.5,112.5 419.5,111.5C 416.813,111.664 414.146,111.497 411.5,111C 410.204,106.897 409.037,102.73 408,98.5C 403.191,96.9677 398.524,97.301 394,99.5C 392.555,104.506 390.721,109.339 388.5,114C 385.833,114.667 383.167,114.667 380.5,114C 378.418,112.169 376.085,111.002 373.5,110.5C 373.5,110.167 373.5,109.833 373.5,109.5C 376.448,109.777 379.281,109.444 382,108.5C 384.217,103.789 386.05,98.9554 387.5,94C 394.305,92.2235 401.138,92.0568 408,93.5C 410.012,98.7019 411.512,104.035 412.5,109.5C 417.248,109.725 421.915,109.225 426.5,108C 429.62,107.291 431.62,105.458 432.5,102.5C 421.849,82.8575 413.683,62.1908 408,40.5C 405.51,36.1305 402.01,35.2972 397.5,38C 391.547,39.895 389.047,43.7284 390,49.5C 384.063,63.8171 378.229,78.1505 372.5,92.5C 369.828,90.6086 368.828,87.9419 369.5,84.5C 370.302,85.9516 370.802,87.6183 371,89.5C 378.191,73.4596 384.524,57.1262 390,40.5C 394.165,37.0733 398.998,35.0733 404.5,34.5C 406.136,35.3039 407.636,36.3039 409,37.5C 410.657,40.3556 412.657,43.0223 415,45.5C 420.03,64.5923 427.03,82.9256 436,100.5C 438.096,81.1379 437.93,61.8045 435.5,42.5C 437.036,37.0732 440.702,34.7399 446.5,35.5C 449.259,35.542 451.925,36.042 454.5,37C 456.096,40.0483 458.263,42.5483 461,44.5C 465.828,54.159 471.161,63.4923 477,72.5C 477.298,62.3023 476.798,52.1356 475.5,42C 476.088,40.0801 477.088,38.4134 478.5,37C 483.095,35.6071 487.761,35.2738 492.5,36C 494.584,36.6972 496.251,37.8639 497.5,39.5 Z"/></g>
<g><path style="opacity:1" fill="#1b1a16" d="M 560.5,41.5 C 559.833,41.5 559.5,41.8333 559.5,42.5C 555.151,37.8226 549.817,35.6559 543.5,36C 538.725,45.0474 533.559,53.8807 528,62.5C 522.708,54.0833 517.541,45.5833 512.5,37C 510.833,36.3333 509.167,36.3333 507.5,37C 505.34,38.332 503.34,39.832 501.5,41.5C 501.5,41.1667 501.5,40.8333 501.5,40.5C 503.766,35.2035 507.766,33.3702 513.5,35C 515.096,38.0483 517.263,40.5483 520,42.5C 522.748,47.6657 525.748,52.6657 529,57.5C 533.119,49.4258 537.619,41.5925 542.5,34C 550.013,32.9248 556.013,35.4248 560.5,41.5 Z"/></g>
<g><path style="opacity:1" fill="#0e0d0c" d="M 497.5,39.5 C 498.268,40.2625 498.768,41.2625 499,42.5C 499.417,41.244 500.25,40.5774 501.5,40.5C 501.5,40.8333 501.5,41.1667 501.5,41.5C 500.02,44.2551 500.187,46.9218 502,49.5C 508.997,58.1538 514.997,67.4872 520,77.5C 520.333,88.1667 520.667,98.8333 521,109.5C 526.468,112.142 531.968,112.142 537.5,109.5C 537.67,98.5338 537.837,87.5338 538,76.5C 540.139,70.8878 542.806,65.5545 546,60.5C 550.741,54.6045 555.241,48.6045 559.5,42.5C 559.5,41.8333 559.833,41.5 560.5,41.5C 562.477,43.8138 564.477,46.1472 566.5,48.5C 557.633,57.7264 550.633,68.2264 545.5,80C 544.71,91.51 544.377,103.01 544.5,114.5C 535.525,117.973 527.358,116.64 520,110.5C 519.042,108.801 518.542,106.967 518.5,105C 519.366,95.5053 519.199,86.0053 518,76.5C 514.932,70.7011 511.599,65.0344 508,59.5C 507,57.8333 505.667,56.5 504,55.5C 502.508,62.9067 501.675,70.4067 501.5,78C 502.448,89.4915 502.615,100.992 502,112.5C 501.5,113 501,113.5 500.5,114C 496.833,114.667 493.167,114.667 489.5,114C 486.136,111.685 482.469,110.185 478.5,109.5C 478.5,108.833 478.833,108.5 479.5,108.5C 482.467,108.998 485.467,109.331 488.5,109.5C 490.964,109.41 493.13,108.743 495,107.5C 495.615,95.9915 495.448,84.4915 494.5,73C 495.238,62.1667 495.905,51.3334 496.5,40.5C 496.5,39.8333 496.833,39.5 497.5,39.5 Z"/></g>
<g><path style="opacity:1" fill="#070705" d="M 202.5,45.5 C 209.126,51.5484 212.626,59.2151 213,68.5C 214.386,81.4528 213.052,94.1195 209,106.5C 208.117,109.102 206.617,111.269 204.5,113C 197.167,113.667 189.833,113.667 182.5,113C 180.807,112.153 179.14,111.32 177.5,110.5C 181.833,109.833 186.167,109.167 190.5,108.5C 194.954,109.383 198.454,108.05 201,104.5C 208.025,85.1444 208.192,65.8111 201.5,46.5C 201.5,45.8333 201.833,45.5 202.5,45.5 Z"/></g>
<g><path style="opacity:1" fill="#090907" d="M 730.5,41.5 C 730.842,40.6618 731.508,40.3284 732.5,40.5C 742.636,47.7677 747.803,57.7677 748,70.5C 749.12,66.0262 750.286,61.6929 751.5,57.5C 751.833,57.5 752.167,57.5 752.5,57.5C 750.888,64.7297 750.221,72.063 750.5,79.5C 750.795,81.7354 750.461,83.7354 749.5,85.5C 749.307,81.551 748.807,81.551 748,85.5C 748.018,95.2574 745.518,104.257 740.5,112.5C 732.883,113.633 725.216,113.8 717.5,113C 715.807,112.153 714.14,111.32 712.5,110.5C 716.833,109.833 721.167,109.167 725.5,108.5C 729.954,109.383 733.454,108.05 736,104.5C 741.596,88.881 742.93,72.881 740,56.5C 738.891,52.2807 737.225,48.2807 735,44.5C 733.729,43.1175 732.229,42.1175 730.5,41.5 Z"/></g>
<g><path style="opacity:1" fill="#0a0906" d="M 145.5,45.5 C 152.447,52.1755 155.947,60.5089 156,70.5C 156.977,68.26 157.477,65.9267 157.5,63.5C 158.167,63.5 158.5,63.8333 158.5,64.5C 158.5,70.5 158.5,76.5 158.5,82.5C 158.768,84.099 158.434,85.4324 157.5,86.5C 157.5,85.5 157.5,84.5 157.5,83.5C 157.587,80.4017 157.087,80.0684 156,82.5C 155.505,84.4727 155.338,86.4727 155.5,88.5C 154.873,94.5948 153.706,100.595 152,106.5C 151.117,109.102 149.617,111.269 147.5,113C 132.038,116.541 118.538,113.041 107,102.5C 106.209,101.255 105.709,99.9217 105.5,98.5C 105.833,98.5 106.167,98.5 106.5,98.5C 109.112,103.319 113.112,106.486 118.5,108C 125.833,108.667 133.167,108.667 140.5,108C 141.308,107.692 141.975,107.192 142.5,106.5C 150.916,86.7009 151.582,66.7009 144.5,46.5C 144.5,45.8333 144.833,45.5 145.5,45.5 Z"/></g>
<g><path style="opacity:1" fill="#0d0c06" d="M 132.5,50.5 C 134.124,50.3601 135.29,51.0267 136,52.5C 136.667,62.8333 136.667,73.1667 136,83.5C 135.473,89.933 133.306,95.5997 129.5,100.5C 127.854,99.2214 126.687,97.5547 126,95.5C 124.885,83.0463 125.551,70.7129 128,58.5C 129.259,55.6441 130.759,52.9774 132.5,50.5 Z"/></g>
<g><path style="opacity:1" fill="#100e08" d="M 189.5,50.5 C 190.822,50.33 191.989,50.6634 193,51.5C 193.827,64.5342 193.493,77.5342 192,90.5C 190.926,94.3189 189.093,97.6522 186.5,100.5C 184.854,99.2214 183.687,97.5547 183,95.5C 181.917,83.053 182.584,70.7196 185,58.5C 186.259,55.6441 187.759,52.9774 189.5,50.5 Z"/></g>
<g><path style="opacity:1" fill="#100e08" d="M 724.5,50.5 C 725.822,50.33 726.989,50.6634 728,51.5C 728.827,64.5342 728.493,77.5342 727,90.5C 725.926,94.3189 724.093,97.6522 721.5,100.5C 719.854,99.2214 718.687,97.5547 718,95.5C 716.917,83.053 717.584,70.7196 720,58.5C 721.259,55.6441 722.759,52.9774 724.5,50.5 Z"/></g>
<g><path style="opacity:1" fill="#0f0e07" d="M 781.5,50.5 C 782.822,50.33 783.989,50.6634 785,51.5C 785.667,62.5 785.667,73.5 785,84.5C 784.284,90.495 782.117,95.8283 778.5,100.5C 776.854,99.2214 775.687,97.5547 775,95.5C 774.291,84.4708 774.624,73.4708 776,62.5C 777.037,58.0948 778.871,54.0948 781.5,50.5 Z"/></g>
<g><path style="opacity:1" fill="#6c6628" d="M 478.5,58.5 C 479.819,65.344 479.819,72.344 478.5,79.5C 477.893,79.3764 477.56,79.0431 477.5,78.5C 478.491,72.021 478.824,65.3543 478.5,58.5 Z"/></g>
<g><path style="opacity:1" fill="#1e1d17" d="M 145.5,45.5 C 144.833,45.5 144.5,45.8333 144.5,46.5C 143.163,45.6851 142.163,44.5185 141.5,43C 134.017,38.4428 126.017,36.9428 117.5,38.5C 116.262,40.6374 114.429,41.9707 112,42.5C 100.112,60.0988 98.2785,78.7655 106.5,98.5C 106.167,98.5 105.833,98.5 105.5,98.5C 104.21,97.9423 103.377,96.9423 103,95.5C 96.347,76.1494 98.847,58.1494 110.5,41.5C 113.327,39.8291 115.994,37.9957 118.5,36C 127.484,35.3289 135.818,37.3289 143.5,42C 144.305,43.1127 144.972,44.2794 145.5,45.5 Z"/></g>
<g><path style="opacity:1" fill="#0e0d0a" d="M 314.5,60.5 C 315.338,60.8417 315.672,61.5084 315.5,62.5C 314.291,66.2973 312.791,69.9639 311,73.5C 310.252,71.6675 309.252,70.0009 308,68.5C 301.402,48.0391 294.402,27.7058 287,7.5C 286.097,6.29857 284.931,5.46524 283.5,5C 276.766,4.171 270.099,4.50433 263.5,6C 261.714,6.78451 260.214,7.95118 259,9.5C 259.609,25.8047 260.109,42.138 260.5,58.5C 259.666,79.1686 259.166,99.8352 259,120.5C 259.833,121.333 260.667,122.167 261.5,123C 281.293,130.206 288.959,123.539 284.5,103C 284.347,94.4872 284.014,85.9872 283.5,77.5C 283.182,72.9677 283.515,68.6344 284.5,64.5C 289.557,77.2867 294.057,90.2867 298,103.5C 298,106.833 298,110.167 298,113.5C 303.561,118.026 309.894,121.026 317,122.5C 318.982,122.01 320.649,121.01 322,119.5C 327.194,101.389 332.694,83.3889 338.5,65.5C 339.492,72.6476 339.825,79.9809 339.5,87.5C 339.073,98.8382 338.907,110.172 339,121.5C 339.833,122.333 340.667,123.167 341.5,124C 348.099,125.496 354.766,125.829 361.5,125C 362.701,124.097 363.535,122.931 364,121.5C 364.721,103.123 364.221,84.7899 362.5,66.5C 363.07,48.1375 364.07,29.8041 365.5,11.5C 365.5,10.8333 365.833,10.5 366.5,10.5C 367.833,11.9335 369.333,13.2668 371,14.5C 372.006,16.5336 372.506,18.7002 372.5,21C 370.353,42.1106 369.353,63.2772 369.5,84.5C 368.828,87.9419 369.828,90.6086 372.5,92.5C 369.206,96.8367 368.373,101.503 370,106.5C 371.518,107.163 372.685,108.163 373.5,109.5C 372.5,109.5 371.5,109.5 370.5,109.5C 370.5,115.167 370.5,120.833 370.5,126.5C 370.489,128.017 369.823,129.184 368.5,130C 361.792,130.638 355.126,130.305 348.5,129C 345.897,126.922 342.897,125.589 339.5,125C 338.667,124.167 337.833,123.333 337,122.5C 336.595,114.147 336.595,105.813 337,97.5C 334.223,107.164 331.056,116.664 327.5,126C 326.5,126.5 325.5,127 324.5,127.5C 316.843,124.673 309.177,121.84 301.5,119C 299,117.833 297.167,116 296,113.5C 296.215,110.189 296.215,106.856 296,103.5C 293.73,98.3557 292.063,93.0223 291,87.5C 290.952,95.1525 291.118,102.819 291.5,110.5C 291.594,116.246 291.094,121.913 290,127.5C 289.5,128 289,128.5 288.5,129C 283.167,129.667 277.833,129.667 272.5,129C 268.274,126.644 263.774,124.81 259,123.5C 257.04,120.116 256.207,116.45 256.5,112.5C 257.846,96.1947 258.513,79.8613 258.5,63.5C 258.156,45.1446 257.656,26.8113 257,8.5C 259.594,4.95265 263.094,3.11932 267.5,3C 273.917,2.13044 280.251,2.46377 286.5,4C 289.698,8.19059 292.864,12.3573 296,16.5C 301.742,33.0591 307.076,49.7257 312,66.5C 313.135,64.6301 313.968,62.6301 314.5,60.5 Z"/></g>
<g><path style="opacity:1" fill="#3c3816" d="M 284.5,64.5 C 283.515,68.6344 283.182,72.9677 283.5,77.5C 282.349,72.3497 282.183,67.0164 283,61.5C 283.513,62.5266 284.013,63.5266 284.5,64.5 Z"/></g>
<g><path style="opacity:1" fill="#707070" d="M 134.5,76.5 C 134.795,74.2646 134.461,72.2646 133.5,70.5C 133.838,68.146 134.338,65.8127 135,63.5C 135.814,68.0204 135.647,72.3537 134.5,76.5 Z"/></g>
<g><path style="opacity:1" fill="#e6e6e6" d="M 783.5,84.5 C 782.518,81.0381 782.185,77.3714 782.5,73.5C 782.457,70.0901 782.957,66.7568 784,63.5C 784.108,70.4929 783.941,77.4929 783.5,84.5 Z"/></g>
<g><path style="opacity:1" fill="#11100c" d="M 403.5,81.5 C 401.844,83.0603 399.844,84.0603 397.5,84.5C 395.076,84.8076 392.743,84.4742 390.5,83.5C 392.331,77.8335 394.831,72.5002 398,67.5C 400.125,72.0382 401.958,76.7048 403.5,81.5 Z"/></g>
<g><path style="opacity:1" fill="#1f1d17" d="M 732.5,40.5 C 731.508,40.3284 730.842,40.6618 730.5,41.5C 723.887,37.8078 716.887,36.8078 709.5,38.5C 708.262,40.6374 706.429,41.9707 704,42.5C 694.125,56.4045 691.125,71.7378 695,88.5C 698.831,104.515 708.998,111.181 725.5,108.5C 721.167,109.167 716.833,109.833 712.5,110.5C 704.783,108.947 699.283,104.613 696,97.5C 688.255,77.5742 690.422,58.9076 702.5,41.5C 705.161,40.1078 707.494,38.2745 709.5,36C 713.5,35.3333 717.5,35.3333 721.5,36C 725.343,37.3611 729.009,38.8611 732.5,40.5 Z"/></g>
<g><path style="opacity:1" fill="#ebebeb" d="M 191.5,83.5 C 190.521,80.3752 190.187,77.0419 190.5,73.5C 190.248,70.6802 190.748,68.0135 192,65.5C 192.167,66.3333 192.333,67.1667 192.5,68C 191.631,73.129 191.298,78.2957 191.5,83.5 Z"/></g>
<g><path style="opacity:1" fill="#5c5722" d="M 339.5,87.5 C 339.825,79.9809 339.492,72.6476 338.5,65.5C 338.987,64.5266 339.487,63.5266 340,62.5C 340.823,71.0104 340.657,79.3437 339.5,87.5 Z"/></g>
<g><path style="opacity:1" fill="#f0f0f0" d="M 726.5,83.5 C 725.521,80.3752 725.187,77.0419 725.5,73.5C 725.457,70.0901 725.957,66.7568 727,63.5C 726.947,70.1497 726.78,76.8164 726.5,83.5 Z"/></g>
<g><path style="opacity:1" fill="#565656" d="M 157.5,83.5 C 156.833,85.1667 156.167,86.8333 155.5,88.5C 155.338,86.4727 155.505,84.4727 156,82.5C 157.087,80.0684 157.587,80.4017 157.5,83.5 Z"/></g>
<g><path style="opacity:1" fill="#555120" d="M 403.5,81.5 C 404.404,82.209 404.737,83.209 404.5,84.5C 402.167,84.5 399.833,84.5 397.5,84.5C 399.844,84.0603 401.844,83.0603 403.5,81.5 Z"/></g>
<g><path style="opacity:1" fill="#cbcbcb" d="M 133.5,70.5 C 134.461,72.2646 134.795,74.2646 134.5,76.5C 134.656,80.5817 134.156,84.5817 133,88.5C 132.254,82.4492 132.421,76.4492 133.5,70.5 Z"/></g>
<g><path style="opacity:1" fill="#a5a5a5" d="M 190.5,73.5 C 190.187,77.0419 190.521,80.3752 191.5,83.5C 190.79,85.7463 190.29,88.0796 190,90.5C 189.182,84.6513 189.348,78.9846 190.5,73.5 Z"/></g>
<g><path style="opacity:1" fill="#999999" d="M 782.5,73.5 C 782.185,77.3714 782.518,81.0381 783.5,84.5C 782.852,86.0858 782.352,87.7525 782,89.5C 781.183,83.9836 781.349,78.6503 782.5,73.5 Z"/></g>
<g><path style="opacity:1" fill="#a3a3a3" d="M 725.5,73.5 C 725.187,77.0419 725.521,80.3752 726.5,83.5C 726.313,85.5643 725.813,87.5643 725,89.5C 724.183,83.9836 724.349,78.6503 725.5,73.5 Z"/></g>
<g><path style="opacity:1" fill="#0d0d09" d="M 640.5,58.5 C 639.514,62.97 639.181,67.6367 639.5,72.5C 640.791,72.7373 641.791,72.404 642.5,71.5C 642.833,71.5 643.167,71.5 643.5,71.5C 643.5,72.1667 643.833,72.5 644.5,72.5C 641.003,73.4025 637.337,74.0691 633.5,74.5C 633.445,52.8014 633.945,31.1348 635,9.5C 631.365,5.79139 626.865,4.12472 621.5,4.5C 616.556,4.3128 612.389,5.97947 609,9.5C 611.095,44.1547 610.928,78.8214 608.5,113.5C 607.972,117.261 608.972,120.427 611.5,123C 618.084,124.544 624.751,124.877 631.5,124C 632.701,123.097 633.535,121.931 634,120.5C 634.5,110.506 634.666,100.506 634.5,90.5C 643.472,89.6529 652.472,89.3195 661.5,89.5C 661.19,100.587 660.357,111.587 659,122.5C 661.653,124.941 664.82,125.941 668.5,125.5C 673.844,125.736 678.677,124.403 683,121.5C 681.53,84.0795 682.696,46.7462 686.5,9.5C 686.5,8.83333 686.833,8.5 687.5,8.5C 687.539,9.58317 687.873,10.5832 688.5,11.5C 692.371,12.5364 694.037,15.0364 693.5,19C 691.81,30.7827 690.643,42.616 690,54.5C 689.556,78.5082 689.556,102.508 690,126.5C 683.675,130.159 676.841,131.325 669.5,130C 666.177,128.125 662.677,126.625 659,125.5C 657.692,123.866 656.858,122.032 656.5,120C 658.035,111.557 659.035,103.057 659.5,94.5C 653.471,94.4255 647.471,94.7588 641.5,95.5C 641.666,105.506 641.5,115.506 641,125.5C 640.535,126.931 639.701,128.097 638.5,129C 633.5,129.667 628.5,129.667 623.5,129C 619.06,126.942 614.393,125.275 609.5,124C 607.142,121.091 606.142,117.758 606.5,114C 609.143,80.3334 609.143,46.6667 606.5,13C 606.905,8.92961 608.905,5.92961 612.5,4C 620.153,1.49889 627.486,2.16556 634.5,6C 636.285,9.45238 638.785,12.2857 642,14.5C 641.569,29.1545 641.069,43.8212 640.5,58.5 Z"/></g>
<g><path style="opacity:1" fill="#494949" d="M 640.5,58.5 C 639.903,63.294 640.57,67.6273 642.5,71.5C 641.791,72.404 640.791,72.7373 639.5,72.5C 639.181,67.6367 639.514,62.97 640.5,58.5 Z"/></g>
<g><path style="opacity:1" fill="#232117" d="M 158.5,82.5 C 159.724,86.3531 160.891,90.3531 162,94.5C 162.937,97.656 164.437,100.489 166.5,103C 173.637,108.06 181.637,109.894 190.5,108.5C 186.167,109.167 181.833,109.833 177.5,110.5C 169.396,108.235 163.563,103.235 160,95.5C 159.605,92.348 158.772,89.348 157.5,86.5C 158.434,85.4324 158.768,84.099 158.5,82.5 Z"/></g>
<g><path style="opacity:1" fill="#262419" d="M 750.5,79.5 C 751.474,84.4038 752.64,89.4038 754,94.5C 759.407,106.834 768.907,111.501 782.5,108.5C 778.167,109.167 773.833,109.833 769.5,110.5C 763.979,109.492 759.479,106.825 756,102.5C 753.14,97.0847 750.973,91.418 749.5,85.5C 750.461,83.7354 750.795,81.7354 750.5,79.5 Z"/></g>
<g><path style="opacity:1" fill="#7a7a7a" d="M 373.5,109.5 C 373.5,109.833 373.5,110.167 373.5,110.5C 371.856,115.59 370.856,120.923 370.5,126.5C 370.5,120.833 370.5,115.167 370.5,109.5C 371.5,109.5 372.5,109.5 373.5,109.5 Z"/></g>
</svg>
